<mxfile host="app.diagrams.net" agent="Mozilla/5.0 (Macintosh; Intel Mac OS X 10_15_7) AppleWebKit/605.1.15 (KHTML, like Gecko) Version/18.6 Safari/605.1.15" version="28.2.7">
  <diagram name="Сторінка-1" id="BBnAmSPmK_hMSSCM9j-e">
    <mxGraphModel dx="630" dy="853" grid="1" gridSize="10" guides="1" tooltips="1" connect="1" arrows="1" fold="1" page="1" pageScale="1" pageWidth="827" pageHeight="1169" math="0" shadow="0">
      <root>
        <mxCell id="0" />
        <mxCell id="1" parent="0" />
        <mxCell id="ZFf6XiWt7frZkoEreDVW-1" value="Користувач" style="shape=umlActor;verticalLabelPosition=bottom;verticalAlign=top;html=1;" vertex="1" parent="1">
          <mxGeometry x="100" y="230" width="30" height="60" as="geometry" />
        </mxCell>
        <mxCell id="ZFf6XiWt7frZkoEreDVW-3" value="Редагування даних" style="ellipse;whiteSpace=wrap;html=1;" vertex="1" parent="1">
          <mxGeometry x="210" y="160" width="130" height="40" as="geometry" />
        </mxCell>
        <mxCell id="ZFf6XiWt7frZkoEreDVW-4" value="Введення даних" style="ellipse;whiteSpace=wrap;html=1;" vertex="1" parent="1">
          <mxGeometry x="250" y="260" width="140" height="30" as="geometry" />
        </mxCell>
        <mxCell id="ZFf6XiWt7frZkoEreDVW-5" value="Виконання обчислень" style="ellipse;whiteSpace=wrap;html=1;" vertex="1" parent="1">
          <mxGeometry x="200" y="350" width="140" height="40" as="geometry" />
        </mxCell>
        <mxCell id="ZFf6XiWt7frZkoEreDVW-6" value="Запис в XML-файл" style="ellipse;whiteSpace=wrap;html=1;" vertex="1" parent="1">
          <mxGeometry x="440" y="110" width="140" height="40" as="geometry" />
        </mxCell>
        <mxCell id="ZFf6XiWt7frZkoEreDVW-7" value="Читання з XML-файлу" style="ellipse;whiteSpace=wrap;html=1;" vertex="1" parent="1">
          <mxGeometry x="470" y="240" width="140" height="40" as="geometry" />
        </mxCell>
        <mxCell id="ZFf6XiWt7frZkoEreDVW-8" value="Графічна інтерпретація" style="ellipse;whiteSpace=wrap;html=1;" vertex="1" parent="1">
          <mxGeometry x="430" y="340" width="150" height="40" as="geometry" />
        </mxCell>
        <mxCell id="ZFf6XiWt7frZkoEreDVW-9" value="Генерація звіту" style="ellipse;whiteSpace=wrap;html=1;" vertex="1" parent="1">
          <mxGeometry x="400" y="420" width="140" height="40" as="geometry" />
        </mxCell>
        <mxCell id="ZFf6XiWt7frZkoEreDVW-17" value="" style="endArrow=none;html=1;rounded=0;entryX=0;entryY=0.5;entryDx=0;entryDy=0;exitX=1;exitY=0.3333333333333333;exitDx=0;exitDy=0;exitPerimeter=0;" edge="1" parent="1" source="ZFf6XiWt7frZkoEreDVW-1" target="ZFf6XiWt7frZkoEreDVW-3">
          <mxGeometry relative="1" as="geometry">
            <mxPoint x="170" y="240" as="sourcePoint" />
            <mxPoint x="330" y="240" as="targetPoint" />
          </mxGeometry>
        </mxCell>
        <mxCell id="ZFf6XiWt7frZkoEreDVW-18" value="" style="endArrow=none;html=1;rounded=0;entryX=0;entryY=0.5;entryDx=0;entryDy=0;" edge="1" parent="1" source="ZFf6XiWt7frZkoEreDVW-1" target="ZFf6XiWt7frZkoEreDVW-4">
          <mxGeometry relative="1" as="geometry">
            <mxPoint x="170" y="240" as="sourcePoint" />
            <mxPoint x="330" y="240" as="targetPoint" />
          </mxGeometry>
        </mxCell>
        <mxCell id="ZFf6XiWt7frZkoEreDVW-19" value="" style="endArrow=none;html=1;rounded=0;entryX=0;entryY=0;entryDx=0;entryDy=0;" edge="1" parent="1" source="ZFf6XiWt7frZkoEreDVW-1" target="ZFf6XiWt7frZkoEreDVW-5">
          <mxGeometry relative="1" as="geometry">
            <mxPoint x="170" y="240" as="sourcePoint" />
            <mxPoint x="330" y="240" as="targetPoint" />
          </mxGeometry>
        </mxCell>
        <mxCell id="ZFf6XiWt7frZkoEreDVW-21" value="&quot;розширює&quot;" style="endArrow=open;endSize=12;dashed=1;html=1;rounded=0;exitX=0;exitY=0.5;exitDx=0;exitDy=0;entryX=1;entryY=0.5;entryDx=0;entryDy=0;" edge="1" parent="1" source="ZFf6XiWt7frZkoEreDVW-6" target="ZFf6XiWt7frZkoEreDVW-3">
          <mxGeometry x="0.04" y="-18" width="160" relative="1" as="geometry">
            <mxPoint x="360" y="210" as="sourcePoint" />
            <mxPoint x="520" y="210" as="targetPoint" />
            <mxPoint as="offset" />
          </mxGeometry>
        </mxCell>
        <mxCell id="ZFf6XiWt7frZkoEreDVW-22" value="&quot;включає&quot;" style="endArrow=open;endSize=12;dashed=1;html=1;rounded=0;exitX=1;exitY=0.5;exitDx=0;exitDy=0;entryX=0;entryY=0.5;entryDx=0;entryDy=0;" edge="1" parent="1" source="ZFf6XiWt7frZkoEreDVW-4" target="ZFf6XiWt7frZkoEreDVW-7">
          <mxGeometry x="-0.0566" y="-12" width="160" relative="1" as="geometry">
            <mxPoint x="380" y="290" as="sourcePoint" />
            <mxPoint x="540" y="290" as="targetPoint" />
            <mxPoint as="offset" />
          </mxGeometry>
        </mxCell>
        <mxCell id="ZFf6XiWt7frZkoEreDVW-23" value="&quot;включає&quot;" style="endArrow=open;endSize=12;dashed=1;html=1;rounded=0;exitX=1;exitY=0.5;exitDx=0;exitDy=0;entryX=0;entryY=0.5;entryDx=0;entryDy=0;" edge="1" parent="1" source="ZFf6XiWt7frZkoEreDVW-5" target="ZFf6XiWt7frZkoEreDVW-8">
          <mxGeometry x="-0.0732" y="15" width="160" relative="1" as="geometry">
            <mxPoint x="350" y="360" as="sourcePoint" />
            <mxPoint x="510" y="360" as="targetPoint" />
            <mxPoint as="offset" />
          </mxGeometry>
        </mxCell>
        <mxCell id="ZFf6XiWt7frZkoEreDVW-24" value="&quot;розширює&quot;" style="endArrow=open;endSize=12;dashed=1;html=1;rounded=0;exitX=0;exitY=0.5;exitDx=0;exitDy=0;entryX=1;entryY=1;entryDx=0;entryDy=0;" edge="1" parent="1" source="ZFf6XiWt7frZkoEreDVW-9" target="ZFf6XiWt7frZkoEreDVW-5">
          <mxGeometry x="-0.2003" y="-22" width="160" relative="1" as="geometry">
            <mxPoint x="350" y="360" as="sourcePoint" />
            <mxPoint x="510" y="360" as="targetPoint" />
            <mxPoint as="offset" />
          </mxGeometry>
        </mxCell>
      </root>
    </mxGraphModel>
  </diagram>
</mxfile>
